<?xml version="1.0" encoding="UTF-8" standalone="no"?>
<!DOCTYPE svg PUBLIC "-//W3C//DTD SVG 1.1//EN" "http://www.w3.org/Graphics/SVG/1.1/DTD/svg11.dtd">
<svg xmlns="http://www.w3.org/2000/svg" xml:space="preserve" fill-rule="evenodd" stroke-miterlimit="10" clip-rule="evenodd" viewBox="0 0 1080 1080">
  <path fill="none" d="M0-.014h1080v1080.006H0z"/>
  <path fill="#fff" stroke="#fff" stroke-width="123.48" d="M66.667 88.889H44.444C32.222 88.889 0 22.222 0 22.222 0 10 10 0 22.222 0H600c12.222 0 22.222 10 22.222 22.222 0 0-32.222 66.667-44.444 66.667h-22.222v577.778c125.222 0 214.511 17.711 243.288 104.089a22.195 22.195 0 0 1 1.139 7.022c0 12.184-10.021 22.213-22.205 22.222-9.539 0-18.059-6.148-21.067-15.2-13.927-41.74-50.206-70.335-177.472-73.413 13.14 4.645 42.983 66.391 42.983 66.391C622.222 790 612.222 800 600 800H22.222C10 800 0 790 0 777.778c0 0 32.222-66.667 44.444-66.667h22.223V88.889Z" transform="matrix(.99766 0 0 1.18126 140.95 67.498)"/>
  <path fill="#553788" d="M916.904 1012.505c-9.517 0-18.017-7.262-21.018-17.955-14.72-52.238-54.472-87.046-200.683-87.046-12.163 0-22.171-11.85-22.171-26.25s10.008-26.25 22.17-26.25c124.93 0 214.009 20.922 242.718 122.956a30.647 30.647 0 0 1 1.137 8.295c0 14.393-9.998 26.24-22.153 26.25Z"/>
  <path fill="#553788" d="M207.46 146.25h487.743v787.505H207.46z"/>
  <path fill="#c1694f" d="M717.373 172.5H185.289c-12.193 0-44.34-78.752-44.34-78.752 0-14.437 9.977-26.25 22.17-26.25h576.423c12.194 0 22.17 11.813 22.17 26.25 0 0-32.146 78.751-44.34 78.751Zm0 735.004H185.289c-12.193 0-44.34 78.751-44.34 78.751 0 14.437 9.977 26.25 22.17 26.25h576.423c12.194 0 22.17-11.813 22.17-26.25 0 0-32.146-78.75-44.34-78.75Z"/>
  <path fill="#744eaa" d="M650.862 251.25H251.8c-12.194 0-22.17-11.812-22.17-26.25s9.976-26.25 22.17-26.25h399.062c12.193 0 22.17 11.812 22.17 26.25s-9.977 26.25-22.17 26.25Zm0 105H251.8c-12.194 0-22.17-11.813-22.17-26.25s9.976-26.25 22.17-26.25h399.062c12.193 0 22.17 11.813 22.17 26.25s-9.977 26.25-22.17 26.25Zm0 105H251.8c-12.194 0-22.17-11.812-22.17-26.25 0-14.436 9.976-26.249 22.17-26.249h399.062c12.193 0 22.17 11.813 22.17 26.25s-9.977 26.25-22.17 26.25Zm0 105.002H251.8c-12.194 0-22.17-11.813-22.17-26.25 0-14.438 9.976-26.25 22.17-26.25h399.062c12.193 0 22.17 11.812 22.17 26.25 0 14.437-9.977 26.25-22.17 26.25Zm0 105H251.8c-12.194 0-22.17-11.812-22.17-26.25 0-14.437 9.976-26.25 22.17-26.25h399.062c12.193 0 22.17 11.813 22.17 26.25 0 14.438-9.977 26.25-22.17 26.25Zm0 105.001H251.8c-12.194 0-22.17-11.812-22.17-26.25 0-14.437 9.976-26.25 22.17-26.25h399.062c12.193 0 22.17 11.813 22.17 26.25 0 14.438-9.977 26.25-22.17 26.25Zm0 105.001H251.8c-12.194 0-22.17-11.812-22.17-26.25s9.976-26.25 22.17-26.25h399.062c12.193 0 22.17 11.812 22.17 26.25s-9.977 26.25-22.17 26.25Z"/>
  <path fill="#9266cc" d="M523.628 251.25H312.524c-8.984-.015-16.372-8.762-16.384-19.4v-13.702c.012-10.636 7.4-19.385 16.384-19.399H523.65c8.975.029 16.35 8.772 16.361 19.399v13.73c-.024 10.626-7.408 19.357-16.383 19.372Zm0 105H312.524c-8.984-.014-16.372-8.761-16.384-19.399V323.15c.012-10.636 7.4-19.385 16.384-19.399H523.65c8.975.028 16.35 8.772 16.361 19.399v13.728c-.024 10.627-7.408 19.359-16.383 19.373Zm0 105H312.524c-8.984-.013-16.372-8.762-16.384-19.398v-13.728c.024-10.627 7.409-19.359 16.384-19.373H523.65c8.975.028 16.35 8.772 16.361 19.399v13.728c-.024 10.627-7.408 19.359-16.383 19.373Zm0 105.002H312.524c-8.984-.015-16.372-8.763-16.384-19.399v-13.729c.024-10.626 7.409-19.358 16.384-19.372H523.65c8.975.028 16.35 8.772 16.361 19.398v13.729c-.024 10.627-7.408 19.358-16.383 19.373Zm0 105H312.524c-8.984-.014-16.372-8.762-16.384-19.398v-13.729c.024-10.626 7.409-19.358 16.384-19.372H523.65c8.975.028 16.35 8.772 16.361 19.398v13.729c-.024 10.626-7.408 19.358-16.383 19.372Zm0 105.001H312.524c-8.984-.014-16.372-8.762-16.384-19.398v-13.729c.024-10.626 7.409-19.358 16.384-19.372H523.65c8.975.028 16.35 8.772 16.361 19.398v13.729c-.024 10.626-7.408 19.358-16.383 19.372Zm0 105.001H312.524c-8.984-.014-16.372-8.762-16.384-19.398v-13.73c.024-10.627 7.409-19.357 16.384-19.373H523.65c8.975.03 16.35 8.773 16.361 19.4v13.729c-.024 10.626-7.408 19.358-16.383 19.372Z"/>
</svg>
