<svg xmlns="http://www.w3.org/2000/svg" xml:space="preserve" viewBox="0 0 874 1024"><path fill="#365076" d="M874.343 259.5 437 7-.343 259.5v505L437 1017l437.343-252.5z"/><path fill="#fff" d="M437 759.001c74.506 0 134.905-60.399 134.905-134.905v-22.951a4.76 4.76 0 0 1 2.987-4.435c20.944-8.416 144.47-63.461 128.17-185.276C685.5 280.178 522.473 300.771 440.29 379.179a4.733 4.733 0 0 1-6.58 0c-82.183-78.408-245.21-99.001-262.772 32.255-16.299 121.815 107.226 176.861 128.17 185.276a4.76 4.76 0 0 1 2.987 4.435v22.951c0 74.506 60.399 134.905 134.905 134.905"/><g fill="#365076"><path d="M379.246 498.979c.398 4.648-5.319 7.168-8.365 3.635-9.897-11.482-28.728-27.878-60.302-36.628-51.838-14.365 3.123-44.968 24.358-34.975 19.154 9.014 40.341 21.585 44.309 67.968M494.754 498.979c-.398 4.648 5.319 7.168 8.365 3.635 9.897-11.482 28.728-27.878 60.302-36.627 51.838-14.365-3.123-44.968-24.358-34.975-19.154 9.013-40.341 21.584-44.309 67.967"/></g><g fill="#365076"><path d="M467.532 567.716c7.069 15.684 18.396 46.949 8.518 69.106-1.378 3.092-5.593 3.623-7.838 1.091-8.093-9.127-22.598-32.049-9.584-69.713 1.423-4.12 7.113-4.457 8.904-.484M406.468 567.716c-7.069 15.684-18.396 46.949-8.518 69.106 1.378 3.092 5.593 3.623 7.838 1.091 8.093-9.127 22.598-32.049 9.584-69.713-1.423-4.12-7.113-4.457-8.904-.484"/></g></svg>