<svg xmlns="http://www.w3.org/2000/svg" xml:space="preserve" style="fill-rule:evenodd;clip-rule:evenodd;stroke-linejoin:round;stroke-miterlimit:2" viewBox="0 0 14 15"><path d="m8 16.668-3.175 5.498L8 24l3.175-1.833.138-3.906c-1.45-.836-2.948-1.593-3.313-1.593" style="fill:#df6277;fill-rule:nonzero" transform="translate(-1.374 -16.668)"/><path d="M11.313 18.261 8 24l3.175 1.833 3.176-5.499c-.183-.318-1.588-1.235-3.038-2.073" style="fill:#fb9168;fill-rule:nonzero" transform="translate(-1.374 -16.668)"/><path d="M14.351 20.334 8 24l3.175 1.833L14.627 24c0-1.676-.092-3.349-.276-3.666" style="fill:#f3db6c;fill-rule:nonzero" transform="translate(-1.374 -16.668)"/><path d="M8 24v3.666h6.351c.184-.317.275-1.99.275-3.666z" style="fill:#7ab392;fill-rule:nonzero" transform="translate(-1.374 -16.668)"/><path d="M8 24v3.666l3.313 2.073c1.449-.838 2.854-1.755 3.038-2.073z" style="fill:#4b7cbc;fill-rule:nonzero" transform="translate(-1.374 -16.668)"/><path d="m8 24-3.175 1.833L8 31.334c.367 0 1.863-.759 3.313-1.595z" style="fill:#6f488c;fill-rule:nonzero" transform="translate(-1.374 -16.668)"/><path d="m4.825 22.167-3.177 5.499c.365.636 5.618 3.666 6.349 3.666V24z" style="fill:#4d3f33;fill-rule:nonzero" transform="translate(-1.374 -16.668)"/><path d="M1.649 20.334c-.366.635-.366 6.697 0 7.332L8 24v-3.666z" style="fill:#7a573b;fill-rule:nonzero" transform="translate(-1.374 -16.668)"/><path d="M8 16.668c-.733 0-5.984 3.03-6.351 3.666L8 24z" style="fill:#99cd61;fill-rule:nonzero" transform="translate(-1.374 -16.668)"/><path d="M8 20.334c-.365 0-2.991 1.515-3.175 1.833L8 27.666l3.176-5.499c-.183-.318-2.809-1.833-3.175-1.833" style="fill:#fff;fill-rule:nonzero" transform="translate(-1.374 -16.668)"/><path d="M4.825 22.167 8 27.666c.368 0 2.993-1.515 3.176-1.833.183-.317.184-3.349 0-3.666L8.001 24z" style="fill:#dfdfdf;fill-rule:nonzero" transform="translate(-1.374 -16.668)"/><path d="M4.825 22.167c-.184.317-.184 3.349 0 3.666.183.318 2.81 1.833 3.175 1.833V24z" style="fill:#d6d2d2;fill-rule:nonzero" transform="translate(-1.374 -16.668)"/></svg>